<svg width="57" height="20" viewBox="0 0 57 20" fill="none" xmlns="http://www.w3.org/2000/svg">
<path fill-rule="evenodd" clip-rule="evenodd" d="M1.05537 0.561255C2.17356 0.164986 3.34597 0.0106203 4.49514 0.0117766V0.0117188C8.59931 0.0149793 12.4088 1.99662 12.4088 1.99662C18.2469 4.99063 19.2424 8.5111 19.1348 9.8782C19.0406 11.2248 18.5296 13.5011 14.9312 14.6084V14.6017C12.5502 15.34 10.3036 14.9982 9.07946 14.6701C9.04583 15.176 8.99215 15.3878 8.91144 15.4698C8.81728 15.5792 8.03699 16.0304 7.60654 15.3879C7.41821 15.0803 7.32407 14.5265 7.27026 14.0206C4.51263 12.7492 3.23466 10.8762 3.1943 10.8078C3.12705 10.7395 2.50149 10.0766 3.127 9.2563C3.71216 8.51806 5.64924 7.77286 7.38454 7.47894C7.45179 5.9751 7.61325 4.81315 7.82176 4.30048C8.05181 3.73174 8.33945 4.15604 8.60477 4.54742C8.62646 4.57941 8.64799 4.61118 8.66934 4.64217C8.89802 4.94977 9.03914 6.26907 9.05259 7.32176C10.1826 7.26707 10.8687 7.34919 12.1265 7.59525C13.7811 7.88236 14.884 8.74344 14.7966 9.71408C14.7159 10.6711 13.8549 11.0677 13.5186 11.0951C13.1823 11.1224 12.6443 10.8695 12.6443 10.8695C12.2677 10.6918 12.6107 10.5277 13.0479 10.3363C13.5322 10.097 13.4244 9.85772 13.4244 9.85772C13.2495 9.31089 11.1041 8.94871 8.97196 8.94871C8.97196 10.145 9.01896 12.1271 9.05259 13.2824C10.5458 13.5694 11.6624 13.508 11.6624 13.508C11.6624 13.508 17.1103 13.3509 17.265 9.81684C17.4332 6.27597 11.8171 2.88531 7.68061 1.81895C3.55087 0.718418 1.21018 1.4978 1.0084 1.60033C0.786441 1.7097 0.9883 1.75074 0.9883 1.75074C0.9883 1.75074 1.2101 1.78476 1.61365 1.92148C2.0172 2.05818 1.6945 2.26341 1.6945 2.26341C0.988275 2.50948 0.201248 2.3659 0.0465469 2.03778C-0.0918253 1.75042 0.0980714 1.48492 0.356283 1.12391L0.356293 1.1239C0.386761 1.0813 0.41818 1.03737 0.450123 0.99192C0.732609 0.5476 1.05537 0.561255 1.05537 0.561255ZM21.8725 0.977393C21.8725 0.977393 21.9547 0.971497 22.0819 0.973578V0.973555C22.4634 0.979972 23.2478 1.05965 23.4193 1.59281H23.4598C23.4598 1.59281 24.7378 1.59269 24.7109 2.75476C24.7109 3.91682 23.2984 5.36603 21.859 5.86504V5.84448C20.9308 6.16575 20.2986 6.06318 19.7605 5.82392C19.5251 6.25457 19.3839 6.38444 19.209 6.41178C18.94 6.43914 18.7044 6.00175 18.6708 5.86504L18.6591 5.84331C18.6012 5.73675 18.4996 5.54996 18.6439 5.16086C18.1193 4.68236 18.0789 4.03976 18.1731 3.60912C18.2941 3.10327 19.1822 1.20297 21.8725 0.977393ZM20.8988 2.35936C20.058 2.94723 19.4999 3.6991 19.1838 4.17761C19.056 3.99987 19.0694 3.73325 19.3385 3.28893C19.7084 2.70107 20.2531 2.42773 20.8988 2.35936ZM23.675 3.3359C23.675 3.3359 23.9677 2.53861 23.2967 2.51633C23.2273 2.51403 23.1476 2.51997 23.0562 2.53599C22.2087 2.67271 20.9038 3.82119 20.2783 4.77134C21.2401 4.94907 22.9216 4.88075 23.675 3.3359ZM51.6286 5.20653C51.4099 5.20653 51.2156 5.38055 51.2338 5.59497C51.3331 6.76702 51.4238 7.84089 51.4867 8.8963H48.4338C48.2152 8.8963 48.0391 9.06957 48.0391 9.28474V9.96453C48.0391 10.1797 48.2152 10.3527 48.4338 10.3527H51.5545C51.5866 11.38 51.5873 12.4158 51.5299 13.5269C51.5188 13.7418 51.706 13.9154 51.9246 13.9154H52.6399C52.8585 13.9154 53.0191 13.7415 53.0346 13.5269C53.1113 12.4714 53.1435 11.411 53.1272 10.3527H56.3773C56.596 10.3527 56.7721 10.1797 56.7721 9.96453V9.28474C56.7721 9.06957 56.596 8.8963 56.3773 8.8963H53.0656C52.9959 7.78921 52.8722 6.68808 52.6645 5.59497C52.6243 5.38348 52.4886 5.20653 52.2699 5.20653H51.6286ZM32.1161 6.29571C32.1497 6.15899 32.2389 6.12474 32.3196 6.12474C32.4003 6.12474 32.4727 6.15885 32.4727 6.15885C32.4727 6.15885 33.5892 6.70576 34.134 8.5514C34.6721 10.397 34.3089 12.0717 34.1071 12.5707H34.1003C33.8986 13.0697 33.3404 13.5961 32.6678 13.2748C31.9818 12.9467 30.8988 10.7046 30.8988 10.7046C30.8988 10.7046 30.4953 9.87073 30.4146 9.89808C30.4146 9.89808 30.3271 9.7339 30.28 10.6499C30.2627 10.8846 30.2552 11.1767 30.2472 11.4858V11.4858C30.2245 12.3739 30.1981 13.4019 29.9237 13.6098C29.5874 13.8832 29.1837 13.7671 28.955 13.4458C28.7667 13.1245 28.6859 12.352 28.7936 11.0054C28.9146 9.65874 29.2173 8.22334 29.6007 7.77902C30.0042 7.32794 30.3269 7.65587 30.448 7.77895L30.4481 7.77902C30.4481 7.77902 30.966 8.25749 31.8404 9.67246L31.9885 9.93218C31.9885 9.93218 32.782 11.2789 32.8627 11.2721C32.8627 11.2721 32.93 11.3403 32.9838 11.2856C33.0645 11.2651 33.0378 10.8276 33.0378 10.8276C33.0378 10.8276 32.8896 9.37173 32.1498 6.9109C32.1498 6.9109 32.0421 6.59649 32.1161 6.29571ZM42.6746 6.85173C42.5523 6.84583 42.3873 6.98724 42.3873 6.98724C40.5713 8.65514 40.3024 10.5006 40.3024 10.5006C40.1342 11.4986 40.3427 12.2096 40.6386 12.6881C39.623 14.8892 39.1254 16.8033 39.2599 17.938C39.3944 18.8061 39.9997 19.4212 40.3697 19.5579C40.7396 19.7083 40.8069 19.2504 40.8069 19.2504C41.1096 16.9057 41.6342 15.3403 42.2529 13.7954L42.2663 13.8025C44.1697 14.2399 45.5957 12.3602 46.1001 11.451C46.7391 10.3026 46.7391 8.32022 45.8849 7.70501C44.5397 6.74803 42.3672 9.76933 41.4121 11.2595C41.2709 10.5007 41.7753 9.53003 41.7753 9.53003C41.7753 9.53003 42.5826 8.1082 42.6902 7.8211C42.8112 7.52033 42.8718 6.93256 42.7238 6.86421C42.7087 6.85658 42.6921 6.85263 42.6746 6.85179V6.85173ZM25.5247 7.08322C25.5247 7.08322 25.6887 7.0764 25.9423 7.07466V7.07459C26.703 7.06946 28.2705 7.11048 28.6388 7.52062C28.6388 7.52062 28.7062 7.64366 28.6255 7.82822V7.83504C28.6083 7.86553 28.5927 7.89791 28.5767 7.93114L28.5767 7.9312L28.5767 7.93127L28.5766 7.93133L28.5766 7.93139C28.4922 8.1067 28.3967 8.30506 28.0067 8.36824C28.0067 8.36824 23.5002 8.68947 23.2783 9.01076C23.2783 9.01076 23.1303 9.20207 23.3724 9.24992C23.628 9.30462 24.6504 9.44141 25.1347 9.46877C25.6593 9.46877 27.4215 9.48241 28.0672 10.289C28.0672 10.289 28.437 10.6718 28.4236 11.5399C28.4101 12.4286 28.2555 12.7431 27.9125 13.0644C27.556 13.3651 24.5023 14.7596 22.5316 12.6269C22.5316 12.6269 21.6304 11.6015 22.8478 10.8222C22.8478 10.8222 23.7222 10.2753 25.9619 10.911C25.9619 10.911 26.6345 11.1572 26.6076 11.4101C26.5672 11.6835 26.0494 11.957 25.2961 11.9433C24.5697 11.9228 24.0315 11.5672 24.1392 11.6287C24.24 11.6629 23.3523 11.1913 23.0766 11.5126C22.8075 11.8134 22.8746 11.9911 23.1437 12.1757C23.8162 12.5721 26.4596 12.4286 27.2465 11.5332C27.2465 11.5332 27.5628 11.1708 27.0852 10.8769C26.6144 10.6035 25.2423 10.4326 24.711 10.4121C24.6401 10.4083 24.5419 10.4055 24.4246 10.4022L24.4244 10.4022L24.4243 10.4022L24.4242 10.4022C23.7067 10.382 22.2766 10.3418 22.0339 9.913C22.0339 9.913 21.7648 9.55751 22.0608 8.58686C22.3701 7.56152 24.5696 7.16524 25.5247 7.08322ZM39.0267 7.07812C37.4245 7.08089 35.3286 7.46758 35.089 7.59574C34.8468 7.70512 34.8737 7.88278 35.1831 8.29292C35.5194 8.71673 36.0912 8.68248 36.0912 8.68248L35.5867 9.73513C35.1831 9.76931 35.0485 9.88553 35.0485 9.88553C34.8131 10.159 35.1294 10.9108 35.1294 10.9108C35.1294 10.9108 34.4232 12.5174 34.9478 13.3718C35.4926 14.2673 36.145 14.2262 36.145 14.2262C37.3826 14.315 39.4272 12.989 39.5348 12.5584C39.629 12.2029 39.306 11.8065 39.0235 11.7381C38.7545 11.6834 36.7098 12.0799 36.4677 12.1482C36.2054 12.2166 36.3198 11.9705 36.3198 11.9705L36.636 10.8905C36.636 10.8905 38.5864 10.8015 38.8756 10.7537C39.1245 10.7058 39.1448 10.5213 39.1448 10.5213C39.1448 10.5213 39.1784 10.2069 39.1649 9.9061C39.138 9.61215 38.8959 9.6326 38.8959 9.6326C38.1426 9.55739 37.1134 9.64638 37.1134 9.64638L37.369 8.81234C37.369 8.81234 39.4473 8.70987 40.2343 8.5253H40.241C40.6446 8.4296 40.4158 8.01943 40.4158 8.01943C39.9114 7.01457 39.3397 7.08309 39.3397 7.08309C39.238 7.07962 39.1335 7.078 39.0267 7.07812ZM20.1844 7.36186C20.2894 7.26999 20.3815 7.23216 20.4624 7.22973C20.6403 7.22427 20.7644 7.38975 20.8569 7.52604L20.8896 7.5754C21.0183 7.76848 21.1686 7.99408 21.1934 8.42826C21.2338 8.90676 21.3481 11.3676 21.3481 11.3676C21.3481 11.3676 21.4961 13.6097 21.1934 13.8421H21.1866C20.8705 14.0814 20.1978 13.9789 20.0028 13.7055C19.8144 13.4662 19.7471 12.5228 19.7808 11.0394C19.7851 10.9003 19.7892 10.7584 19.7933 10.615L19.7934 10.6133L19.7934 10.6118C19.8343 9.1918 19.8791 7.63485 20.1844 7.36186ZM45.5143 8.8485C45.6759 8.86452 45.7074 9.0994 45.7074 9.0994C45.8352 10.2478 45.0146 11.116 44.6582 11.4373C44.4362 11.6492 43.7164 12.0662 42.9766 12.1482C43.6761 10.7401 44.564 9.70113 45.0617 9.15429C45.2736 8.9082 45.4174 8.83888 45.5143 8.8485ZM7.35759 9.24273C7.35751 9.16446 7.35742 9.08511 7.35742 9.00389C5.38 9.1406 4.23668 9.46854 3.69859 9.71461C3.12016 9.98805 3.52356 10.4256 3.52356 10.4256C4.61317 11.6081 5.94512 12.3533 7.22305 12.8181C7.35938 10.9288 7.35856 10.1593 7.35759 9.24273Z" fill="black" fill-opacity="0.705882"/>
<path fill-rule="evenodd" clip-rule="evenodd" d="M15.1922 14.5512C12.8175 15.2875 10.577 14.9466 9.35615 14.6194C9.32262 15.1238 9.26894 15.3352 9.18844 15.417C9.09453 15.5261 8.31639 15.976 7.88708 15.3352C7.69925 15.0284 7.60535 14.4762 7.55168 13.9717C4.80137 12.7036 3.52684 10.8356 3.48659 10.7675C3.41951 10.6993 2.79566 10.038 3.41951 9.2199C4.00312 8.48362 5.93504 7.74051 7.66572 7.44737C7.7328 5.94753 7.89379 4.78855 8.10175 4.27725C8.33114 3.71013 8.61785 4.13309 8.88241 4.52339L8.88242 4.52341C8.9041 4.55538 8.92562 4.58714 8.94695 4.61811C9.17503 4.92489 9.3159 6.24067 9.32932 7.29057C10.4563 7.236 11.1405 7.31782 12.3949 7.56326C14.0451 7.84961 15.1452 8.7086 15.058 9.67667C14.9775 10.6311 14.1189 11.0265 13.7835 11.0538C13.4481 11.0811 12.9114 10.8288 12.9114 10.8288C12.5358 10.6516 12.8779 10.488 13.3139 10.2971C13.7969 10.0585 13.6896 9.81985 13.6896 9.81985C13.5151 9.27445 11.3753 8.91312 9.24882 8.91312C9.24882 10.1062 9.29577 12.0832 9.32932 13.2354C10.8185 13.5217 11.932 13.4604 11.932 13.4604C11.932 13.4604 17.3656 13.3036 17.5199 9.77895C17.6876 6.2475 12.0863 2.86602 7.96088 1.8025C3.84212 0.704886 1.50771 1.48207 1.30647 1.58435C1.0851 1.69342 1.28633 1.73432 1.28633 1.73432C1.28633 1.73432 1.5077 1.76839 1.91018 1.90477C2.31266 2.0411 1.99068 2.24564 1.99068 2.24564C1.28633 2.49107 0.501498 2.3479 0.347209 2.02066C0.209197 1.73406 0.398586 1.46926 0.656117 1.1092C0.6865 1.06672 0.717831 1.02291 0.749686 0.977586C1.03142 0.534455 1.35341 0.548092 1.35341 0.548092C6.45154 -1.25855 12.6766 1.97976 12.6766 1.97976C18.4992 4.9658 19.492 8.47681 19.3847 9.84029C19.2908 11.1833 18.781 13.4536 15.1921 14.558L15.1922 14.5512ZM20.0098 5.7988C20.5464 6.0374 21.177 6.13966 22.1027 5.81924L22.1027 5.83971C23.5382 5.34205 24.9469 3.89673 24.9469 2.73776C24.9737 1.57879 23.6992 1.57879 23.6992 1.57879H23.6589C23.4308 0.869783 22.1161 0.965233 22.1161 0.965233C19.4328 1.1902 18.5474 3.08546 18.4266 3.58995C18.3327 4.01945 18.373 4.66029 18.8962 5.13751C18.7523 5.52553 18.8536 5.71175 18.9114 5.81801L18.923 5.83971C18.9566 5.97606 19.1914 6.41236 19.4597 6.38511C19.6341 6.35785 19.775 6.22831 20.0098 5.7988ZM34.3102 12.5262C34.109 13.0239 33.5522 13.5489 32.8814 13.2285C32.1972 12.9012 31.1172 10.6651 31.1172 10.6651C31.1172 10.6651 30.7147 9.83335 30.6342 9.86062C30.6342 9.86062 30.547 9.697 30.5 10.6105C30.4827 10.8446 30.4752 11.1358 30.4673 11.444C30.4446 12.3298 30.4182 13.3551 30.1445 13.5625C29.8091 13.8352 29.4066 13.7193 29.1785 13.3989C28.9907 13.0785 28.9102 12.3081 29.0176 10.9651C29.1383 9.62201 29.4402 8.19035 29.8225 7.7472C30.225 7.29725 30.547 7.62449 30.6677 7.7472C30.6677 7.7472 31.1843 8.22444 32.0563 9.63564L32.2039 9.8947C32.2039 9.8947 32.9954 11.2377 33.0759 11.2309C33.0759 11.2309 33.143 11.2991 33.1967 11.2446C33.2772 11.2242 33.2504 10.7878 33.2504 10.7878C33.2504 10.7878 33.1028 9.33572 32.3649 6.88142C32.3649 6.88142 32.2576 6.56783 32.3314 6.26785C32.3985 5.99514 32.6869 6.1315 32.6869 6.1315C32.6869 6.1315 33.8005 6.6769 34.3438 8.51762C34.8805 10.3583 34.5182 12.0286 34.3169 12.5263L34.3102 12.5262ZM40.4269 8.49012C39.642 8.67419 37.5692 8.77645 37.5692 8.77645L37.3143 9.60817C37.3143 9.60817 38.3406 9.51954 39.0919 9.59455C39.0919 9.59455 39.3334 9.57411 39.3603 9.86725C39.3737 10.1672 39.3401 10.4808 39.3401 10.4808C39.3401 10.4808 39.32 10.6649 39.0718 10.7126C38.7834 10.7604 36.838 10.849 36.838 10.849L36.5228 11.9261C36.5228 11.9261 36.4087 12.1715 36.6703 12.1034C36.9118 12.0352 38.9511 11.6398 39.2194 11.6943C39.5011 11.7625 39.8231 12.1579 39.7292 12.5124C39.6219 12.9419 37.5826 14.2645 36.3483 14.1759C36.3483 14.1759 35.6977 14.2168 35.1543 13.3237C34.6311 12.4715 35.3354 10.8694 35.3354 10.8694C35.3354 10.8694 35.0201 10.1195 35.2549 9.8468C35.2549 9.8468 35.3891 9.73089 35.7916 9.6968L36.2947 8.64691C36.2947 8.64691 35.7245 8.68103 35.3891 8.25832C35.0805 7.84928 35.0537 7.67202 35.2952 7.56293C35.5501 7.42658 37.9113 6.99709 39.5347 7.05163C39.5347 7.05163 40.1049 6.98345 40.608 7.98562C40.608 7.98562 40.836 8.39467 40.4336 8.49012H40.4269ZM28.8012 7.89788L28.8012 7.89783L28.8012 7.8978L28.8012 7.89778C28.8172 7.86459 28.8328 7.83224 28.8499 7.80179L28.8499 7.79498C28.9304 7.6109 28.8633 7.48819 28.8633 7.48819C28.3736 6.94279 25.7575 7.05187 25.7575 7.05187C24.8049 7.13368 22.6114 7.5291 22.3028 8.55172C22.0077 9.51979 22.276 9.87429 22.276 9.87429C22.5181 10.302 23.9441 10.342 24.6598 10.3621C24.7769 10.3654 24.875 10.3681 24.9458 10.372C25.4757 10.3924 26.8442 10.5629 27.3137 10.8356C27.79 11.1287 27.4747 11.49 27.4747 11.49C26.6899 12.3831 24.0536 12.5263 23.3828 12.1309C23.1145 11.9468 23.0474 11.7696 23.3157 11.4696C23.5908 11.1492 24.4762 11.6195 24.3756 11.5855C24.2683 11.5241 24.8049 11.8787 25.5294 11.8991C26.2807 11.9127 26.7972 11.64 26.8375 11.3673C26.8643 11.1151 26.1935 10.8696 26.1935 10.8696C23.9597 10.2356 23.0877 10.781 23.0877 10.781C21.8735 11.5582 22.7724 12.5808 22.7724 12.5808C24.7378 14.7079 27.7833 13.3171 28.1388 13.0172C28.4809 12.6967 28.6352 12.3831 28.6486 11.4968C28.6621 10.631 28.2931 10.2493 28.2931 10.2493C27.6491 9.44479 25.8916 9.43117 25.3684 9.43117C24.8854 9.4039 23.8658 9.26757 23.6109 9.21301C23.3694 9.16528 23.517 8.9744 23.517 8.9744C23.7383 8.65398 28.2327 8.33356 28.2327 8.33356C28.6217 8.27053 28.717 8.07272 28.8012 7.89788ZM21.4308 13.7944C21.1155 14.0331 20.4447 13.9308 20.2502 13.6581C20.0623 13.4195 19.9953 12.4787 20.0288 10.9993C20.0331 10.8595 20.0372 10.7168 20.0414 10.5726C20.0822 9.15648 20.1269 7.60374 20.4313 7.33148C20.7667 7.03833 20.9679 7.29742 21.1021 7.4951L21.1345 7.54394C21.2628 7.7366 21.4128 7.96168 21.4375 8.39501C21.4777 8.87224 21.5918 11.3265 21.5918 11.3265C21.5918 11.3265 21.7394 13.5626 21.4375 13.7944H21.4308ZM23.2939 2.52012C22.4487 2.65649 21.1473 3.80181 20.5234 4.74944C21.4827 4.92669 23.1597 4.85851 23.911 3.31778C23.911 3.31778 24.2665 2.34969 23.2939 2.52012ZM19.4335 4.15329C19.3061 3.97603 19.3195 3.71015 19.5878 3.26701C19.9568 2.68071 20.5001 2.40801 21.1441 2.33984C20.3056 2.92614 19.7488 3.67606 19.4335 4.15329ZM42.4405 13.7467C41.8233 15.2875 41.3001 16.8487 40.9982 19.1871C40.9982 19.1871 40.9312 19.6438 40.5622 19.4939C40.1933 19.3575 39.5895 18.7439 39.4554 17.8781C39.3212 16.7464 39.8176 14.8375 40.8305 12.6423C40.5354 12.1651 40.3274 11.4561 40.4951 10.4607C40.4951 10.4607 40.7635 8.61999 42.5746 6.95652C42.5746 6.95652 42.7893 6.77245 42.91 6.83381C43.0576 6.90198 42.9972 7.48829 42.8765 7.78825C42.7692 8.07459 41.9642 9.49263 41.9642 9.49263C41.9642 9.49263 41.4611 10.4607 41.602 11.2175C42.5546 9.73123 44.7213 6.71791 46.0629 7.67236C46.9148 8.28593 46.9148 10.263 46.2775 11.4083C45.7744 12.3151 44.3523 14.1899 42.4539 13.7535L42.4405 13.7467ZM43.165 12.1037C43.8627 10.6993 44.7481 9.663 45.2445 9.11761C45.808 8.46313 45.8885 9.06307 45.8885 9.06307C46.016 10.2084 45.1976 11.0742 44.8421 11.3946C44.6207 11.606 43.9029 12.0218 43.165 12.1037ZM3.81627 10.3868C3.81627 10.3868 3.41378 9.95048 3.99067 9.67777C4.52733 9.43235 5.66769 9.10511 7.63985 8.96875C7.63985 9.04904 7.63994 9.1275 7.64002 9.2049C7.64097 10.12 7.64177 10.8872 7.5057 12.7729C6.23117 12.3093 4.90297 11.5662 3.81627 10.3868Z" fill="white"/>
<path fill-rule="evenodd" clip-rule="evenodd" d="M51.8103 5.36719C51.5922 5.36719 51.3985 5.5407 51.4166 5.75456C51.5157 6.92348 51.6061 7.99462 51.6688 9.04723H48.6241C48.406 9.04723 48.2305 9.22001 48.2305 9.43461V10.1125C48.2305 10.3271 48.406 10.4999 48.6241 10.4999H51.7365C51.7685 11.5244 51.7692 12.5573 51.7119 13.6655C51.7009 13.8798 51.8875 14.0528 52.1056 14.0528H52.8191C53.0372 14.0528 53.1972 13.8795 53.2127 13.6655C53.2892 12.6127 53.3212 11.5553 53.305 10.4999H56.5465C56.7646 10.4999 56.9402 10.3271 56.9402 10.1125V9.43461C56.9402 9.22001 56.7646 9.04723 56.5465 9.04723H53.2435C53.174 7.94307 53.0508 6.84476 52.8437 5.75456C52.8036 5.54362 52.6681 5.36719 52.45 5.36719L51.8103 5.36719Z" fill="white"/>
</svg>
