<svg width="870" height="234" viewBox="0 0 870 234" fill="none" xmlns="http://www.w3.org/2000/svg">
<path d="M671.894 212.321C684.124 213.261 696.335 214.262 708.529 215.348V0.0183099H671.894V212.321ZM82.5311 132.429L34.8183 0.0183099H0V234C12.1873 232.261 24.399 230.6 36.6351 229.008V101.766L79.0621 223.777C92.4078 222.227 105.772 220.762 119.166 219.383V0.0183099H82.5311V132.429ZM154.399 215.971C188.163 212.901 222.091 210.368 256.165 208.403V172.259C234.394 173.516 212.684 175.012 191.034 176.715V122.005C205.24 121.864 223.938 121.431 240.509 121.632V85.4948C227.273 85.4643 205.996 85.6779 191.034 85.8732V36.4854H256.165V0.0244131H154.399V215.971ZM279.65 36.4793H317.992V205.467C330.185 205.009 342.397 204.625 354.627 204.308V36.4793H392.969V0.0183099H279.65V36.4793ZM416.46 203.319L453.095 203.313V119.881H502.759V83.7432H453.095V36.4854H518.732V0.0244131H416.46V203.319ZM870 0.0183099H829.762L803.235 61.57L779.397 0.0183099H739.762L782.354 110.006L735.854 217.906C748.718 219.163 761.552 220.5 774.361 221.916L801.406 159.18L828.189 228.336C842.138 230.131 856.057 232.004 869.945 233.988L870 233.963L822.275 110.744L870 0.0183099ZM578.852 0H542.217V205.113C575.511 206.261 608.665 207.939 641.684 210.148V174.011C620.797 172.613 599.849 171.435 578.846 170.453V0H578.852Z" fill="white"/>
</svg>
